g go_game_board
v 8.978716 -0.02120023 -8.978716
v -8.978716 -0.02120023 8.978716
v -8.978716 -0.02120023 -8.978716
v 8.978716 -0.02120023 8.978716
v -8.978716 -0.02120023 8.978716
v 8.978716 -0.02120023 8.978716
v 9.049167 -0.03246117 9.049167
v -9.049167 -0.03246117 9.049167
v 9.102909 -0.06624391 9.102909
v -9.102909 -0.06624391 9.102909
v 9.139944 -0.1225485 9.139944
v -9.139944 -0.1225485 9.139944
v -9.58198 -1.163906 9.58198
v 9.58198 -1.163906 9.58198
v 9.592746 -1.22021 9.592746
v -9.592746 -1.22021 9.592746
v 9.567683 -1.253993 9.567683
v -9.567683 -1.253993 9.567683
v 9.507627 -1.264338 9.507627
v -9.507627 -1.264338 9.507627
v 8.978716 -0.02120023 8.978716
v 8.978716 -0.02120023 -8.978716
v 9.049167 -0.03246117 -9.049167
v 9.049167 -0.03246117 9.049167
v 9.102909 -0.06624391 -9.102909
v 9.102909 -0.06624391 9.102909
v 9.139944 -0.1225485 -9.139944
v 9.139944 -0.1225485 9.139944
v 9.58198 -1.163906 9.58198
v 9.58198 -1.163906 -9.58198
v 9.592746 -1.22021 -9.592746
v 9.592746 -1.22021 9.592746
v 9.567683 -1.253993 -9.567683
v 9.567683 -1.253993 9.567683
v 9.507627 -1.26434 -9.507627
v 9.507627 -1.264338 9.507627
v 8.978716 -0.02120023 -8.978716
v -8.978716 -0.02120023 -8.978716
v -9.049167 -0.03246117 -9.049167
v 9.049167 -0.03246117 -9.049167
v -9.102909 -0.06624391 -9.102909
v 9.102909 -0.06624391 -9.102909
v -9.139944 -0.1225485 -9.139944
v 9.139944 -0.1225485 -9.139944
v 9.58198 -1.163906 -9.58198
v -9.58198 -1.163906 -9.58198
v -9.592746 -1.22021 -9.592746
v 9.592746 -1.22021 -9.592746
v -9.567683 -1.253993 -9.567683
v 9.567683 -1.253993 -9.567683
v -9.507627 -1.26434 -9.507627
v 9.507627 -1.26434 -9.507627
v -8.978716 -0.02120023 -8.978716
v -8.978716 -0.02120023 8.978716
v -9.049167 -0.03246117 9.049167
v -9.049167 -0.03246117 -9.049167
v -9.102909 -0.06624391 9.102909
v -9.102909 -0.06624391 -9.102909
v -9.139944 -0.1225485 9.139944
v -9.139944 -0.1225485 -9.139944
v -9.58198 -1.163906 -9.58198
v -9.58198 -1.163906 9.58198
v -9.592746 -1.22021 9.592746
v -9.592746 -1.22021 -9.592746
v -9.567683 -1.253993 9.567683
v -9.567683 -1.253993 -9.567683
v -9.507627 -1.264338 9.507627
v -9.507627 -1.26434 -9.507627
v 9.507627 -1.264338 9.507627
v -9.507627 -1.26434 -9.507627
v -9.507627 -1.264338 9.507627
v 9.507627 -1.26434 -9.507627
vt 0.9928767 0.9908202
vt 0.4813358 0.4792792
vt 0.4813358 0.9908202
vt 0.9928767 0.4792792
vt 0.4198335 0.9782667
vt 0.4198335 0.4829418
vt 0.4178657 0.4809986
vt 0.4178657 0.9802099
vt 0.4161144 0.4795159
vt 0.4161144 0.9816923
vt 0.4142552 0.4784946
vt 0.4142552 0.9827137
vt 0.3830496 0.9949066
vt 0.3830496 0.4663018
vt 0.381468 0.4660048
vt 0.381468 0.9952033
vt 0.3803075 0.466696
vt 0.3803075 0.9945122
vt 0.3785992 0.4683757
vt 0.378599 0.9928327
vt 0.3670641 0.9782655
vt 0.3670641 0.4829347
vt 0.3650958 0.4809912
vt 0.3650958 0.9802088
vt 0.3633449 0.4795089
vt 0.3633449 0.9816915
vt 0.3614857 0.4784877
vt 0.3614857 0.9827133
vt 0.3302804 0.9949064
vt 0.3302804 0.4662945
vt 0.3286989 0.4659978
vt 0.3286989 0.9952033
vt 0.3275383 0.4666892
vt 0.3275383 0.9945116
vt 0.32583 0.4683686
vt 0.3258304 0.9928322
vt 0.4726031 0.9782663
vt 0.4726031 0.4829404
vt 0.4706351 0.4809968
vt 0.4706351 0.9802095
vt 0.4688842 0.4795147
vt 0.468884 0.9816921
vt 0.467025 0.4784933
vt 0.4670248 0.9827137
vt 0.4358196 0.9949066
vt 0.4358198 0.4663006
vt 0.434238 0.4660037
vt 0.434238 0.9952033
vt 0.4330773 0.4666948
vt 0.4330773 0.9945122
vt 0.4313689 0.4683743
vt 0.4313689 0.9928324
vt 0.3142952 0.9782652
vt 0.3142952 0.4829266
vt 0.3123272 0.4809836
vt 0.3123272 0.9802084
vt 0.3105761 0.4795011
vt 0.3105761 0.9816912
vt 0.3087173 0.4784796
vt 0.3087173 0.9827129
vt 0.2775115 0.9949064
vt 0.2775115 0.4662864
vt 0.2759304 0.4659894
vt 0.2759304 0.9952033
vt 0.27477 0.4666808
vt 0.27477 0.9945118
vt 0.2730621 0.4683604
vt 0.2730621 0.9928322
vt 0.9386027 0.4596814
vt 0.5037929 0.02487149
vt 0.5037929 0.4596814
vt 0.9386027 0.02487149
vn 0 1 0
vn 0 1 0
vn 0 1 0
vn 0 1 0
vn 0 0.9874649 0.1578385
vn 0 0.9874649 0.1578385
vn 0 0.8968554 0.4423238
vn 0 0.8968554 0.4423238
vn 0 0.6495207 0.760344
vn 0 0.6495207 0.760344
vn 0 0.448735 0.8936648
vn 0 0.448735 0.8936648
vn 0 0.2715864 0.9624141
vn 0 0.2715864 0.9624141
vn 0 -0.1602394 0.9870782
vn 0 -0.1602394 0.9870782
vn 0 -0.7443594 0.6677792
vn 0 -0.7443594 0.6677792
vn 0 -0.9854857 0.1697584
vn 0 -0.9854857 0.1697584
vn 0.1578385 0.9874649 0
vn 0.1578385 0.9874649 0
vn 0.4423238 0.8968554 0
vn 0.4423238 0.8968554 0
vn 0.760344 0.6495207 0
vn 0.760344 0.6495207 0
vn 0.8936648 0.448735 0
vn 0.8936648 0.448735 0
vn 0.9624141 0.2715864 0
vn 0.9624141 0.2715864 0
vn 0.9870782 -0.1602394 0
vn 0.9870782 -0.1602394 0
vn 0.6677815 -0.7443574 0
vn 0.6677817 -0.744357 0
vn 0.1697725 -0.9854833 0
vn 0.1697725 -0.9854833 0
vn 0 0.9874649 -0.1578385
vn 0 0.9874649 -0.1578385
vn 0 0.8968554 -0.4423238
vn 0 0.8968554 -0.4423238
vn 0 0.6495207 -0.760344
vn 0 0.6495207 -0.760344
vn 0 0.448735 -0.8936648
vn 0 0.448735 -0.8936648
vn 0 0.2715864 -0.9624141
vn 0 0.2715864 -0.9624141
vn 0 -0.1602394 -0.9870782
vn 0 -0.1602394 -0.9870782
vn 0 -0.7443551 -0.667784
vn 0 -0.7443551 -0.667784
vn 0 -0.9854808 -0.1697865
vn 0 -0.9854808 -0.1697865
vn -0.1578385 0.9874649 0
vn -0.1578385 0.9874649 0
vn -0.4423238 0.8968554 0
vn -0.4423238 0.8968554 0
vn -0.760344 0.6495207 0
vn -0.760344 0.6495207 0
vn -0.8936648 0.448735 0
vn -0.8936648 0.448735 0
vn -0.9624141 0.2715864 0
vn -0.9624141 0.2715864 0
vn -0.9870782 -0.1602394 0
vn -0.9870782 -0.1602394 0
vn -0.6677817 -0.744357 0
vn -0.6677815 -0.7443574 0
vn -0.1697725 -0.9854833 0
vn -0.1697725 -0.9854833 0
vn 0 -1 0
vn 0 -1 0
vn 0 -1 0
vn 0 -1 0
g go_game_board_0
f 3/3/3 2/2/2 1/1/1
f 2/2/2 4/4/4 1/1/1
f 7/7/7 6/6/6 5/5/5
f 7/7/7 5/5/5 8/8/8
f 9/9/9 7/7/7 8/8/8
f 9/9/9 8/8/8 10/10/10
f 11/11/11 9/9/9 10/10/10
f 11/11/11 10/10/10 12/12/12
f 11/11/11 12/12/12 13/13/13
f 14/14/14 11/11/11 13/13/13
f 15/15/15 14/14/14 13/13/13
f 13/13/13 16/16/16 15/15/15
f 16/16/16 17/17/17 15/15/15
f 16/16/16 18/18/18 17/17/17
f 18/18/18 19/19/19 17/17/17
f 18/18/18 20/20/20 19/19/19
f 23/23/23 22/22/22 21/21/21
f 21/21/21 24/24/24 23/23/23
f 25/25/25 23/23/23 24/24/24
f 24/24/24 26/26/26 25/25/25
f 27/27/27 25/25/25 26/26/26
f 27/27/27 26/26/26 28/28/28
f 27/27/27 28/28/28 29/29/29
f 30/30/30 27/27/27 29/29/29
f 31/31/31 30/30/30 29/29/29
f 29/29/29 32/32/32 31/31/31
f 32/32/32 33/33/33 31/31/31
f 32/32/32 34/34/34 33/33/33
f 35/35/35 33/33/33 34/34/34
f 34/34/34 36/36/36 35/35/35
f 39/39/39 38/38/38 37/37/37
f 39/39/39 37/37/37 40/40/40
f 41/41/41 39/39/39 40/40/40
f 41/41/41 40/40/40 42/42/42
f 43/43/43 41/41/41 42/42/42
f 43/43/43 42/42/42 44/44/44
f 43/43/43 44/44/44 45/45/45
f 46/46/46 43/43/43 45/45/45
f 47/47/47 46/46/46 45/45/45
f 45/45/45 48/48/48 47/47/47
f 48/48/48 49/49/49 47/47/47
f 48/48/48 50/50/50 49/49/49
f 50/50/50 51/51/51 49/49/49
f 50/50/50 52/52/52 51/51/51
f 55/55/55 54/54/54 53/53/53
f 55/55/55 53/53/53 56/56/56
f 57/57/57 55/55/55 56/56/56
f 57/57/57 56/56/56 58/58/58
f 59/59/59 57/57/57 58/58/58
f 59/59/59 58/58/58 60/60/60
f 59/59/59 60/60/60 61/61/61
f 62/62/62 59/59/59 61/61/61
f 63/63/63 62/62/62 61/61/61
f 61/61/61 64/64/64 63/63/63
f 64/64/64 65/65/65 63/63/63
f 64/64/64 66/66/66 65/65/65
f 66/66/66 67/67/67 65/65/65
f 66/66/66 68/68/68 67/67/67
f 71/71/71 70/70/70 69/69/69
f 70/70/70 72/72/72 69/69/69
